<?xml version="1.0" encoding="utf-8"?>
<!-- Generator: Adobe Illustrator 23.0.1, SVG Export Plug-In . SVG Version: 6.00 Build 0)  -->
<svg version="1.1" id="Layer_1" xmlns="http://www.w3.org/2000/svg" xmlns:xlink="http://www.w3.org/1999/xlink" x="0px" y="0px"
	 viewBox="0 0 292.5 292.5" style="enable-background:new 0 0 292.5 292.5;" xml:space="preserve">
<style type="text/css">
	.st0{fill:#FFFFFF;}
	.st1{fill:#660000;}
	.st2{fill:#A8001D;}
	.st3{fill:#CE0028;}
	.st4{fill:#DE002B;}
</style>
<g>
	<rect width="292.5" height="292.5"/>
	<g>
		<path class="st0" d="M77.69,196.07v4.24c0,5.19-1.23,8.52-3.84,11.22c-3.23,3.34-9.54,5.93-22.31,5.93
			c-14.57,0-20.41-3.12-23.8-6.62c-2.92-3.02-4.67-7.31-4.67-12.76c0-5.08,1.54-9.58,4.67-12.81c3.38-3.49,10.15-6.56,23.8-6.56
			c10.87,0,19.28,1.96,23.64,4.24v7.52c-5.18-2.91-13.75-5.14-23.64-5.14c-9.95,0-15.23,1.85-17.59,4.29
			c-1.9,1.96-2.87,4.66-2.87,8.47c0,4.03,1.08,6.67,2.87,8.52c2.36,2.44,6.72,4.45,17.59,4.45c8.61,0,14.05-1.58,16.1-3.7
			c1.39-1.43,1.9-2.86,1.9-4.71H47.48v-6.56H77.69z"/>
		<path class="st0" d="M123.19,208.72c0.72-0.74,0.97-1.64,0.97-2.59c0-1.11-0.26-1.96-0.87-2.59c-1.13-1.16-3.23-1.64-15.9-2.33
			c-14.31-0.74-18.67-1.96-21.13-4.5c-1.43-1.48-2.05-3.55-2.05-6.19c0-2.7,0.56-5.24,2.51-7.25c2.51-2.59,7.44-4.39,20.05-4.39
			c10,0,17.54,1.48,22.31,3.44v6.93c-5.44-2.38-14.46-4.13-22.31-4.13c-9.8,0-12.61,0.96-13.8,2.17c-0.61,0.64-0.87,1.48-0.87,2.49
			c0,0.95,0.26,1.75,0.77,2.28c1.08,1.11,3.49,1.75,15.18,2.33c15.13,0.79,19.33,1.96,21.79,4.5c1.44,1.48,2.21,3.76,2.21,6.4
			c0,2.76-0.57,5.3-2.51,7.31c-2.56,2.65-7.64,4.71-21.08,4.71c-9.95,0-19.69-1.64-25.23-4.13v-6.93
			c5.34,2.65,16.67,4.81,25.23,4.81C118.53,211.05,121.75,210.2,123.19,208.72z"/>
		<path class="st0" d="M201.47,216.61h-7.31v-31.02L175,216.61h-9.91l-19.16-31.02v31.02h-7.27v-37.05h11.94l19.58,31.97
			l19.63-31.97h11.65V216.61z"/>
		<path class="st0" d="M240.72,179.34l24.22,37.27h-8.86l-5.57-8.73h-30.39l-5.57,8.73h-8.51l24.23-37.27H240.72z M224.3,201.31
			h22.04L235.3,184L224.3,201.31z"/>
	</g>
	<g>
		<path class="st0" d="M256.46,180.67h-2.43v-1.35h6.21v1.35h-2.43v6.97h-1.36V180.67z"/>
		<path class="st0" d="M261.66,179.32h1.43l2.33,3.93l2.33-3.93h1.43v8.32h-1.35v-5.97l-2.42,3.92h-0.04l-2.4-3.9v5.95h-1.33V179.32
			z"/>
	</g>
	<g>
		<rect x="24.22" y="130.11" class="st1" width="25.82" height="30.46"/>
		<rect x="59.75" y="114.89" class="st2" width="38.72" height="45.68"/>
		<rect x="108.18" y="92.06" class="st3" width="58.03" height="68.51"/>
		<rect x="177.1" y="57.82" class="st4" width="85.89" height="102.76"/>
	</g>
</g>
</svg>
