<svg width="48" height="48" viewBox="0 0 48 48" fill="none" xmlns="http://www.w3.org/2000/svg">
<path d="M32.0017 13.3192C33.0812 14.2829 33.9446 15.464 34.5352 16.7851C35.1258 18.1062 35.4303 19.5372 35.4286 20.9843C35.4286 24.03 34.1046 26.7672 32.0006 28.65M28.5726 17.9614C29.3096 18.7958 29.7158 19.871 29.7143 20.9843C29.716 22.098 29.3094 23.1737 28.5714 24.0077L28.5726 17.9614Z" stroke="#56BEA2" stroke-width="2" stroke-linecap="square"/>
<path fill-rule="evenodd" clip-rule="evenodd" d="M27.4286 39.27H6.85715V36.7082C6.85636 35.7213 7.17504 34.7607 7.76555 33.97C8.35605 33.1792 9.18665 32.6009 10.1331 32.3214C11.9543 31.782 14.4046 31.27 17.1429 31.27C19.836 31.27 22.3011 31.7905 24.1429 32.3351C25.0913 32.6136 25.9239 33.1918 26.5162 33.9832C27.1085 34.7745 27.4286 35.7364 27.4286 36.7248V39.27ZM11.4286 20.9842C11.4286 17.8282 13.9869 15.27 17.1429 15.27C20.2989 15.27 22.8571 17.8282 22.8571 20.9842C22.8571 24.1402 20.2989 27.8414 17.1429 27.8414C13.9869 27.8414 11.4286 24.1402 11.4286 20.9842Z" stroke="#3283BF" stroke-width="2" stroke-linecap="square"/>
<path d="M35.4309 8.72998C38.9234 11.6648 41.1429 16.0654 41.1429 20.9843C41.1429 25.9043 38.9223 30.3054 35.4286 33.2403" stroke="#56BEA2" stroke-width="2" stroke-linecap="square"/>
</svg>
